<svg width="121" height="46" viewBox="0 0 121 46" fill="none" xmlns="http://www.w3.org/2000/svg">
<rect width="121" height="46" rx="23" fill="#47402E"/>
<path d="M61.679 20.1847H59.4631C59.3778 19.7112 59.2192 19.2945 58.9872 18.9347C58.7552 18.5748 58.4711 18.2694 58.1349 18.0185C57.7988 17.7675 57.4223 17.5781 57.0057 17.4503C56.5938 17.3224 56.1558 17.2585 55.6918 17.2585C54.8537 17.2585 54.1032 17.4692 53.4403 17.8906C52.7822 18.312 52.2614 18.9299 51.8778 19.7443C51.4991 20.5587 51.3097 21.553 51.3097 22.7273C51.3097 23.911 51.4991 24.91 51.8778 25.7244C52.2614 26.5388 52.7846 27.1544 53.4474 27.571C54.1103 27.9877 54.8561 28.196 55.6847 28.196C56.1439 28.196 56.5795 28.1345 56.9915 28.0114C57.4081 27.8835 57.7846 27.6965 58.1207 27.4503C58.4569 27.2041 58.741 26.9034 58.973 26.5483C59.2098 26.1884 59.3731 25.7765 59.4631 25.3125L61.679 25.3196C61.5606 26.0346 61.331 26.6927 60.9901 27.294C60.6539 27.8906 60.2206 28.4067 59.6903 28.8423C59.1648 29.2732 58.5634 29.607 57.8864 29.8438C57.2093 30.0805 56.4706 30.1989 55.6705 30.1989C54.411 30.1989 53.2888 29.9006 52.304 29.304C51.3191 28.7027 50.5426 27.8433 49.9744 26.7259C49.411 25.6084 49.1293 24.2756 49.1293 22.7273C49.1293 21.1742 49.4134 19.8414 49.9815 18.7287C50.5497 17.6113 51.3262 16.7543 52.3111 16.1577C53.2959 15.5563 54.4157 15.2557 55.6705 15.2557C56.4422 15.2557 57.1619 15.367 57.8295 15.5895C58.5019 15.8073 59.1056 16.1293 59.6406 16.5554C60.1757 16.9768 60.6184 17.4929 60.9688 18.1037C61.3191 18.7098 61.5559 19.4034 61.679 20.1847ZM64.1346 30V19.0909H66.1871V20.8239H66.3008C66.4996 20.2367 66.85 19.7751 67.3519 19.4389C67.8585 19.098 68.4315 18.9276 69.0707 18.9276C69.2032 18.9276 69.3595 18.9323 69.5394 18.9418C69.7241 18.9512 69.8685 18.9631 69.9727 18.9773V21.0085C69.8874 20.9848 69.7359 20.9588 69.5181 20.9304C69.3003 20.8973 69.0825 20.8807 68.8647 20.8807C68.3628 20.8807 67.9154 20.9872 67.5224 21.2003C67.1341 21.4086 66.8263 21.6998 66.5991 22.0739C66.3718 22.4432 66.2582 22.8646 66.2582 23.3381V30H64.1346ZM76.1214 30.2202C75.0466 30.2202 74.121 29.9905 73.3445 29.5312C72.5727 29.0672 71.9761 28.4162 71.5547 27.5781C71.138 26.7353 70.9297 25.7481 70.9297 24.6165C70.9297 23.4991 71.138 22.5142 71.5547 21.6619C71.9761 20.8097 72.5632 20.1444 73.3161 19.6662C74.0736 19.188 74.959 18.9489 75.9723 18.9489C76.5878 18.9489 77.1844 19.0507 77.7621 19.2543C78.3397 19.4579 78.8582 19.7775 79.3175 20.2131C79.7768 20.6487 80.139 21.2145 80.4041 21.9105C80.6693 22.6018 80.8018 23.4422 80.8018 24.4318V25.1847H72.13V23.5938H78.7209C78.7209 23.035 78.6072 22.5402 78.38 22.1094C78.1527 21.6738 77.8331 21.3305 77.4212 21.0795C77.014 20.8286 76.5357 20.7031 75.9865 20.7031C75.3899 20.7031 74.8691 20.8499 74.424 21.1435C73.9837 21.4323 73.6428 21.8111 73.4013 22.2798C73.1645 22.7438 73.0462 23.2481 73.0462 23.7926V25.0355C73.0462 25.7647 73.174 26.3849 73.4297 26.8963C73.6901 27.4077 74.0523 27.7983 74.5163 28.0682C74.9804 28.3333 75.5225 28.4659 76.1428 28.4659C76.5452 28.4659 76.9122 28.4091 77.2436 28.2955C77.575 28.1771 77.8615 28.0019 78.103 27.7699C78.3445 27.5379 78.5291 27.2514 78.657 26.9105L80.6669 27.2727C80.5059 27.8646 80.2171 28.383 79.8004 28.8281C79.3885 29.2685 78.87 29.6117 78.245 29.858C77.6248 30.0994 76.9169 30.2202 76.1214 30.2202ZM86.3327 30.2415C85.6415 30.2415 85.0165 30.1136 84.4577 29.858C83.899 29.5975 83.4563 29.2211 83.1296 28.7287C82.8076 28.2363 82.6467 27.6326 82.6467 26.9176C82.6467 26.3021 82.765 25.7955 83.0018 25.3977C83.2385 25 83.5581 24.6851 83.9606 24.4531C84.363 24.2211 84.8129 24.0459 85.31 23.9276C85.8072 23.8092 86.3138 23.7192 86.8299 23.6577C87.4833 23.5819 88.0136 23.5204 88.4208 23.473C88.828 23.4209 89.1239 23.3381 89.3086 23.2244C89.4933 23.1108 89.5856 22.9261 89.5856 22.6705V22.6207C89.5856 22.0005 89.4104 21.5199 89.06 21.179C88.7144 20.8381 88.1983 20.6676 87.5117 20.6676C86.7968 20.6676 86.2333 20.8262 85.8214 21.1435C85.4142 21.456 85.1325 21.804 84.9762 22.1875L82.9805 21.733C83.2172 21.0701 83.5629 20.535 84.0174 20.1278C84.4767 19.7159 85.0046 19.4176 85.6012 19.233C86.1978 19.0436 86.8252 18.9489 87.4833 18.9489C87.9189 18.9489 88.3806 19.0009 88.8683 19.1051C89.3607 19.2045 89.82 19.3892 90.2461 19.6591C90.677 19.929 91.0297 20.3149 91.3043 20.8168C91.579 21.3139 91.7163 21.9602 91.7163 22.7557V30H89.6424V28.5085H89.5572C89.4199 28.7831 89.2139 29.053 88.9393 29.3182C88.6647 29.5833 88.3119 29.8035 87.881 29.9787C87.4502 30.1539 86.9341 30.2415 86.3327 30.2415ZM86.7944 28.5369C87.3815 28.5369 87.8834 28.4209 88.3001 28.1889C88.7215 27.9569 89.0411 27.6539 89.2589 27.2798C89.4814 26.901 89.5927 26.4962 89.5927 26.0653V24.6591C89.5169 24.7348 89.3701 24.8059 89.1523 24.8722C88.9393 24.9337 88.6954 24.9882 88.4208 25.0355C88.1462 25.0781 87.8787 25.1184 87.6183 25.1562C87.3578 25.1894 87.14 25.2178 86.9648 25.2415C86.5529 25.2936 86.1765 25.3812 85.8356 25.5043C85.4994 25.6274 85.2295 25.8049 85.0259 26.0369C84.8271 26.2642 84.7276 26.5672 84.7276 26.946C84.7276 27.4716 84.9218 27.8693 85.31 28.1392C85.6983 28.4044 86.1931 28.5369 86.7944 28.5369ZM99.6371 19.0909V20.7955H93.6783V19.0909H99.6371ZM95.2763 16.4773H97.3999V26.7969C97.3999 27.2088 97.4614 27.5189 97.5845 27.7273C97.7076 27.9309 97.8662 28.0705 98.0604 28.1463C98.2592 28.2173 98.4747 28.2528 98.7067 28.2528C98.8771 28.2528 99.0263 28.241 99.1541 28.2173C99.282 28.1937 99.3814 28.1747 99.4524 28.1605L99.8359 29.9148C99.7128 29.9621 99.5376 30.0095 99.3104 30.0568C99.0831 30.1089 98.799 30.1373 98.4581 30.142C97.8994 30.1515 97.3786 30.0521 96.8956 29.8438C96.4126 29.6354 96.022 29.3134 95.7237 28.8778C95.4254 28.4422 95.2763 27.8954 95.2763 27.2372V16.4773ZM106.571 30.2202C105.496 30.2202 104.57 29.9905 103.794 29.5312C103.022 29.0672 102.425 28.4162 102.004 27.5781C101.587 26.7353 101.379 25.7481 101.379 24.6165C101.379 23.4991 101.587 22.5142 102.004 21.6619C102.425 20.8097 103.012 20.1444 103.765 19.6662C104.523 19.188 105.408 18.9489 106.422 18.9489C107.037 18.9489 107.634 19.0507 108.211 19.2543C108.789 19.4579 109.307 19.7775 109.767 20.2131C110.226 20.6487 110.588 21.2145 110.853 21.9105C111.118 22.6018 111.251 23.4422 111.251 24.4318V25.1847H102.579V23.5938H109.17C109.17 23.035 109.056 22.5402 108.829 22.1094C108.602 21.6738 108.282 21.3305 107.87 21.0795C107.463 20.8286 106.985 20.7031 106.436 20.7031C105.839 20.7031 105.318 20.8499 104.873 21.1435C104.433 21.4323 104.092 21.8111 103.85 22.2798C103.614 22.7438 103.495 23.2481 103.495 23.7926V25.0355C103.495 25.7647 103.623 26.3849 103.879 26.8963C104.139 27.4077 104.502 27.7983 104.966 28.0682C105.43 28.3333 105.972 28.4659 106.592 28.4659C106.994 28.4659 107.361 28.4091 107.693 28.2955C108.024 28.1771 108.311 28.0019 108.552 27.7699C108.794 27.5379 108.978 27.2514 109.106 26.9105L111.116 27.2727C110.955 27.8646 110.666 28.383 110.25 28.8281C109.838 29.2685 109.319 29.6117 108.694 29.858C108.074 30.0994 107.366 30.2202 106.571 30.2202Z" fill="white"/>
<path d="M24 16.3333V29.6667M17.3333 23H30.6666M40.6666 23C40.6666 32.2048 33.2047 39.6667 24 39.6667C14.7952 39.6667 7.33331 32.2048 7.33331 23C7.33331 13.7953 14.7952 6.33334 24 6.33334C33.2047 6.33334 40.6666 13.7953 40.6666 23Z" stroke="#F3F3F3" stroke-width="4" stroke-linecap="round" stroke-linejoin="round"/>
</svg>
