<svg width="32" height="33" viewBox="0 0 32 33" fill="none" xmlns="http://www.w3.org/2000/svg">
<path d="M16 28.2813C12.6667 28.2813 9.83333 27.1146 7.5 24.7813C5.16667 22.4479 4 19.6146 4 16.2813C4 12.9479 5.16667 10.1146 7.5 7.78125C9.83333 5.44792 12.6667 4.28125 16 4.28125C16.3111 4.28125 16.6167 4.29236 16.9167 4.31458C17.2167 4.33681 17.5111 4.37014 17.8 4.41458C16.8889 5.05903 16.1611 5.89792 15.6167 6.93125C15.0722 7.96458 14.8 9.08125 14.8 10.2813C14.8 12.2813 15.5 13.9812 16.9 15.3813C18.3 16.7813 20 17.4813 22 17.4813C23.2222 17.4813 24.3444 17.209 25.3667 16.6646C26.3889 16.1201 27.2222 15.3924 27.8667 14.4813C27.9111 14.7701 27.9444 15.0646 27.9667 15.3646C27.9889 15.6646 28 15.9701 28 16.2813C28 19.6146 26.8333 22.4479 24.5 24.7813C22.1667 27.1146 19.3333 28.2813 16 28.2813ZM16 25.6146C17.9556 25.6146 19.7111 25.0757 21.2667 23.9979C22.8222 22.9201 23.9556 21.5146 24.6667 19.7813C24.2222 19.8924 23.7778 19.9813 23.3333 20.0479C22.8889 20.1146 22.4444 20.1479 22 20.1479C19.2667 20.1479 16.9389 19.1868 15.0167 17.2646C13.0944 15.3424 12.1333 13.0146 12.1333 10.2813C12.1333 9.83681 12.1667 9.39236 12.2333 8.94792C12.3 8.50347 12.3889 8.05903 12.5 7.61458C10.7667 8.32569 9.36111 9.45903 8.28333 11.0146C7.20556 12.5701 6.66667 14.3257 6.66667 16.2813C6.66667 18.859 7.57778 21.059 9.4 22.8813C11.2222 24.7035 13.4222 25.6146 16 25.6146Z" fill="#1D1B20"/>
</svg>
