<svg width="50" height="50" viewBox="0 0 50 50" fill="none" xmlns="http://www.w3.org/2000/svg">
<path d="M45.8334 25H33.3334L29.1667 31.25H20.8334L16.6667 25H4.16669M45.8334 25V37.5C45.8334 38.6051 45.3944 39.6649 44.613 40.4463C43.8316 41.2277 42.7718 41.6667 41.6667 41.6667H8.33335C7.22828 41.6667 6.16848 41.2277 5.38708 40.4463C4.60567 39.6649 4.16669 38.6051 4.16669 37.5V25M45.8334 25L38.6459 10.6458C38.3009 9.95165 37.7691 9.36745 37.1103 8.95893C36.4516 8.5504 35.6919 8.33375 34.9167 8.33334H15.0834C14.3082 8.33375 13.5485 8.5504 12.8897 8.95893C12.2309 9.36745 11.6991 9.95165 11.3542 10.6458L4.16669 25" stroke="#1E1E1E" stroke-width="4" stroke-linecap="round" stroke-linejoin="round"/>
<circle cx="43" cy="41" r="5" fill="#E77920"/>
</svg>
